#N canvas 618 179 1094 889 12;
#X obj 441 307 phasor~;
#X obj 440 375 cos~;
#X floatatom 447 270 5 0 0 0 - - - 0;
#X obj 515 312 phasor~;
#X floatatom 509 270 5 0 0 0 - - - 0;
#X obj 441 343 +~;
#X obj 511 369 *~;
#X obj 515 336 cos~;
#X floatatom 564 267 5 0 1 0 - - - 0;
#X obj 330 572 *~;
#X floatatom 313 531 5 0 0 0 - - - 0;
#X obj 348 633 cos~;
#X obj 455 538 lop~;
#X obj 506 486 *~;
#X obj 589 494 samplerate~;
#X obj 589 518 /~ 2;
#X obj 641 393 sig~;
#X obj 615 291 bng 19 250 50 0 empty empty empty 0 -10 0 12 #fcfcfc #000000 #000000;
#X obj 631 427 slop~ 1e+09 0 0 0 0, f 21;
#X floatatom 696 343 5 0 0 0 - - - 0;
#X obj 697 367 t f b;
#X obj 697 391 /;
#X obj 735 393 samplerate~;
#X obj 600 399 1;
#X obj 623 367 0;
#X floatatom 826 355 5 0 0 0 - - - 0;
#X obj 828 383 t f b;
#X obj 828 407 /;
#X obj 866 409 samplerate~;
#X obj 662 362 bng 19 250 50 0 empty empty empty 0 -10 0 12 #fcfcfc #000000 #000000;
#X obj 443 575 *~;
#X obj 599 335 delay 2;
#X obj 506 510 +~ 100;
#X obj 301 88 inlet, f 7;
#X text 293 60 fund freq;
#X obj 394 87 inlet, f 7;
#X text 392 62 ratio;
#X obj 470 86 inlet, f 7;
#X text 468 61 mod index;
#X obj 562 86 inlet, f 7;
#X text 560 61 gate;
#X obj 637 83 inlet, f 7;
#X text 635 58 slop;
#X obj 399 153 *;
#X obj 380 711 outlet~;
#X obj 710 81 inlet, f 7;
#X text 702 60 fold;
#X obj 57 430 s foldamt;
#X obj 224 504 r foldamt;
#X obj 691 316 * 4.82;
#X obj 821 324 * 1053;
#X obj 637 107 s s2;
#X obj 878 312 r s2;
#X obj 79 232 hsl 162 19 0 10 0 0 empty empty empty -2 -10 0 12 #fcfcfc #000000 #000000 0 1;
#N canvas 0 22 450 278 (subpatch) 0;
#X coords 0 1 100 -1 282 140 1 0 0;
#X restore 20 167 graph;
#X text 27 174 freq \, ratio \, idx \, gate \, slew \, fold;
#X obj 79 201 hsl 162 19 0 12 0 0 empty empty empty -2 -10 0 12 #fcfcfc #000000 #000000 0 1;
#X text 27 200 ratio;
#X text 27 231 idx;
#X obj 270 214 bng 19 250 50 0 empty empty empty 0 -10 0 12 #fcfcfc #000000 #000000;
#X obj 77 265 hsl 162 19 0.3 6 0 0 empty empty empty -2 -10 0 12 #fcfcfc #000000 #000000 0 1;
#X text 26 264 fold;
#X connect 0 0 5 0;
#X connect 1 0 12 0;
#X connect 2 0 0 0;
#X connect 3 0 7 0;
#X connect 4 0 3 0;
#X connect 5 0 1 0;
#X connect 6 0 5 1;
#X connect 7 0 6 0;
#X connect 8 0 6 1;
#X connect 9 0 11 0;
#X connect 10 0 9 1;
#X connect 11 0 44 0;
#X connect 12 0 30 0;
#X connect 13 0 32 0;
#X connect 14 0 15 0;
#X connect 15 0 13 1;
#X connect 16 0 18 0;
#X connect 17 0 23 0;
#X connect 17 0 31 0;
#X connect 18 0 13 0;
#X connect 18 0 30 1;
#X connect 19 0 20 0;
#X connect 20 0 21 0;
#X connect 20 1 22 0;
#X connect 21 0 18 2;
#X connect 22 0 21 1;
#X connect 23 0 16 0;
#X connect 24 0 16 0;
#X connect 25 0 26 0;
#X connect 26 0 27 0;
#X connect 26 1 28 0;
#X connect 27 0 18 4;
#X connect 28 0 27 1;
#X connect 30 0 9 0;
#X connect 31 0 24 0;
#X connect 31 0 29 0;
#X connect 32 0 12 1;
#X connect 33 0 2 0;
#X connect 33 0 43 1;
#X connect 35 0 56 0;
#X connect 37 0 53 0;
#X connect 39 0 59 0;
#X connect 41 0 49 0;
#X connect 41 0 51 0;
#X connect 43 0 4 0;
#X connect 45 0 60 0;
#X connect 48 0 10 0;
#X connect 49 0 19 0;
#X connect 50 0 25 0;
#X connect 52 0 50 0;
#X connect 53 0 8 0;
#X connect 56 0 43 0;
#X connect 59 0 17 0;
#X connect 60 0 47 0;
#X coords -1 -1 1 20 300 180 1 10 150;
