#N canvas 152 406 808 557 12;
#X obj 184 51 vsl 19 162 0 127 0 0 empty empty empty 0 -9 0 12 #fcfcfc #000000 #000000 0 1;
#X obj 345 46 loadbang;
#X obj 346 138 bng 19 250 50 0 empty empty empty 0 -10 0 12 #fcfcfc #000000 #000000;
#X obj 317 182 f;
#X obj 351 183 f;
#X obj 317 206 t b;
#X obj 350 208 t b;
#X floatatom 292 241 5 0 0 0 - - - 0;
#X floatatom 337 243 5 0 0 0 - - - 0;
#X floatatom 184 221 5 0 0 0 - - - 0;
#X obj 346 109 metro 80;
#X obj 356 303 -;
#X floatatom 424 315 5 0 0 0 - - - 0;
#X obj 285 39 inlet;
#X obj 285 63 t b;
#X obj 345 70 bng 19 250 50 0 empty empty empty 0 -10 0 12 #fcfcfc #000000 #000000;
#X obj 236 38 inlet;
#X obj 424 338 outlet;
#X text 235 15 x \, dt;
#X text 476 338 dx/dt;
#X connect 0 0 3 1;
#X connect 0 0 9 0;
#X connect 1 0 15 0;
#X connect 2 0 3 0;
#X connect 3 0 5 0;
#X connect 3 0 4 1;
#X connect 3 0 7 0;
#X connect 4 0 6 0;
#X connect 4 0 8 0;
#X connect 5 0 4 0;
#X connect 7 0 11 0;
#X connect 8 0 11 1;
#X connect 10 0 2 0;
#X connect 11 0 12 0;
#X connect 12 0 17 0;
#X connect 13 0 10 1;
#X connect 13 0 14 0;
#X connect 14 0 15 0;
#X connect 15 0 10 0;
#X connect 16 0 0 0;
