#N canvas 792 284 812 648 12;
#X obj 366 479 tabread4~ a1;
#X obj 371 392 vline~;
#X text 487 365 start sample \, end sample \, time (ms);
#X msg 371 365 \$1 0 \, \$2 \$3 0;
#X obj 352 253 f 0;
#X obj 419 247 f 0;
#X floatatom 349 175 5 0 100 0 - - - 0;
#X obj 193 134 bng 19 250 50 0 empty empty empty 0 -10 0 12 #fcfcfc #000000 #000000;
#X floatatom 414 174 5 0 0 0 - - - 0;
#X floatatom 563 172 5 0 0 0 - - - 0;
#X obj 249 200 array size a1;
#X obj 345 226 *;
#X obj 349 198 / 100;
#X floatatom 351 277 8 0 0 0 - - - 0;
#X obj 419 212 *;
#X obj 459 173 samplerate~;
#X obj 459 197 /~ 1000;
#X obj 459 221 snapshot~;
#X floatatom 458 285 8 0 0 0 - - - 0;
#X floatatom 459 245 5 0 0 0 - - - 0;
#X obj 379 338 pack f f f;
#X obj 566 198 / 100;
#X obj 419 271 *;
#X floatatom 566 246 5 0 0 0 - - - 0;
#X obj 566 222 * 1;
#X obj 223 374 vline~;
#X obj 227 431 cos~;
#X obj 333 507 *~;
#X obj 470 329 +;
#X floatatom 520 309 8 0 0 0 - - - 0;
#X msg 374 451 set \$1;
#X obj 225 97 inlet;
#X obj 225 121 s tabname;
#X obj 373 426 r tabname;
#X obj 318 89 inlet;
#X obj 379 85 inlet;
#X obj 440 84 inlet;
#X obj 567 86 inlet;
#X text 216 61 table (symbol) \, pos (%) \, duration (ms) \, rate (%) \, trigger;
#X obj 334 613 outlet~;
#X obj 113 136 vsl 16 60 0 100 0 0 empty empty pos 0 -9 0 12 #fcfcfc #000000 #000000 0 1;
#X obj 139 137 vsl 16 60 0 1000 0 0 empty empty dur 0 -9 0 12 #fcfcfc #000000 #000000 0 1;
#X obj 166 137 vsl 16 60 25 200 0 0 empty empty rate 0 -9 0 12 #fcfcfc #000000 #000000 0 1;
#X obj 408 129 t b b b;
#X obj 350 304 t f b b;
#X obj 449 553 outlet;
#X obj 480 477 delay;
#X obj 535 462 i 0;
#X obj 580 469 i 1;
#X obj 560 497 i;
#X obj 560 521 sig~;
#X obj 543 559 lop~ 4;
#X msg 202 334 -0.25 0 \, 0.25 \$1 0;
#X obj 333 555 hip~ 20;
#X obj 202 301 i;
#X obj 365 528 *~;
#X obj 139 220 f;
#X obj 110 217 f;
#X obj 178 221 f;
#X connect 0 0 27 0;
#X connect 1 0 0 0;
#X connect 3 0 1 0;
#X connect 4 0 13 0;
#X connect 5 0 22 0;
#X connect 6 0 12 0;
#X connect 7 0 17 0;
#X connect 7 0 15 0;
#X connect 7 0 43 0;
#X connect 7 0 10 0;
#X connect 7 0 46 0;
#X connect 7 0 48 0;
#X connect 7 0 54 0;
#X connect 8 0 14 0;
#X connect 8 0 20 2;
#X connect 8 0 54 1;
#X connect 8 0 52 0;
#X connect 9 0 21 0;
#X connect 10 0 11 0;
#X connect 11 0 4 0;
#X connect 12 0 11 1;
#X connect 13 0 28 1;
#X connect 13 0 44 0;
#X connect 14 0 5 0;
#X connect 15 0 16 0;
#X connect 16 0 17 0;
#X connect 17 0 14 1;
#X connect 17 0 19 0;
#X connect 18 0 28 0;
#X connect 20 0 3 0;
#X connect 21 0 24 0;
#X connect 22 0 18 0;
#X connect 24 0 22 1;
#X connect 24 0 23 0;
#X connect 25 0 26 0;
#X connect 26 0 27 1;
#X connect 27 0 55 0;
#X connect 28 0 20 1;
#X connect 28 0 29 0;
#X connect 30 0 0 0;
#X connect 31 0 32 0;
#X connect 31 0 10 1;
#X connect 33 0 30 0;
#X connect 34 0 40 0;
#X connect 35 0 41 0;
#X connect 36 0 42 0;
#X connect 37 0 7 0;
#X connect 37 0 57 0;
#X connect 37 0 56 0;
#X connect 37 0 58 0;
#X connect 40 0 57 1;
#X connect 41 0 56 1;
#X connect 42 0 58 1;
#X connect 43 0 6 0;
#X connect 43 1 9 0;
#X connect 43 2 8 0;
#X connect 44 0 20 0;
#X connect 44 1 28 0;
#X connect 44 2 20 0;
#X connect 46 0 45 0;
#X connect 46 0 47 0;
#X connect 47 0 49 0;
#X connect 48 0 49 0;
#X connect 49 0 50 0;
#X connect 50 0 51 0;
#X connect 51 0 55 1;
#X connect 52 0 25 0;
#X connect 53 0 39 0;
#X connect 54 0 52 0;
#X connect 55 0 53 0;
#X connect 56 0 46 1;
#X connect 56 0 8 0;
#X connect 57 0 6 0;
#X connect 58 0 9 0;
#X coords 0 -1 1 1 120 112 1 100 100;
