#N canvas 343 222 815 734 12;
#X obj 278 290 grain;
#X obj 38 131 inlet;
#X obj 279 496 outlet~;
#X obj 278 414 sqrtpan;
#X obj 353 497 outlet~;
#X obj 390 215 metro;
#X obj 10 51 tgl 19 0 empty empty empty 0 -10 0 12 #fcfcfc #000000 #000000 0 1;
#X obj 445 174 vsl 19 162 0 127 0 0 empty empty empty 0 -9 0 12 #fcfcfc #000000 #000000 0 1;
#X obj 432 367 f;
#X obj 477 174 vsl 19 162 -1 1 0 0 empty empty empty 0 -9 0 12 #fcfcfc #000000 #000000 0 1;
#X obj 90 131 inlet;
#X floatatom 90 203 12 0 0 0 - - - 0;
#X obj 90 155 + 1e-09;
#X text 138 130 cycles/s -> s/cyc -> ms/cycle;
#X obj 90 179 expr (1 / $f1) * 1000;
#X obj 353 129 inlet;
#X obj 407 131 inlet;
#X obj 510 130 inlet;
#X text 9 14 pos (%) \, grain rate (Hz) \, play rate (%) pan [-1 \, 1] \, toggle (i) \, array (s), f 41;
#X obj 566 131 inlet;
#X connect 0 0 3 0;
#X connect 1 0 0 1;
#X connect 3 0 2 0;
#X connect 3 1 4 0;
#X connect 5 0 0 4;
#X connect 5 0 8 0;
#X connect 6 0 5 0;
#X connect 7 0 5 1;
#X connect 7 0 0 2;
#X connect 8 0 3 1;
#X connect 9 0 8 1;
#X connect 10 0 12 0;
#X connect 11 0 7 0;
#X connect 12 0 14 0;
#X connect 14 0 11 0;
#X connect 15 0 0 3;
#X connect 16 0 9 0;
#X connect 17 0 6 0;
#X connect 19 0 0 0;
#X coords 0 -1 1 1 300 80 1 0 0;
