#N canvas 92 136 450 300 12;
#X obj 114 48 inlet;
#X obj 108 77 t b b;
#X obj 85 167 >;
#X obj 171 47 inlet;
#X text 111 27 trig;
#X text 170 27 prob;
#X obj 220 45 loadbang;
#X obj 149 171 spigot;
#X obj 210 199 bng 19 250 50 0 empty empty empty 0 -10 0 12 #fcfcfc #000000 #000000;
#X obj 175 238 outlet;
#X obj 82 31 bng 19 250 50 0 empty empty empty 0 -10 0 12 #fcfcfc #000000 #000000;
#X floatatom 171 103 5 0 0 0 - - - 0;
#X obj 171 79 f 0.5;
#X obj 85 114 random 1000;
#X obj 85 138 / 1000;
#X connect 0 0 1 0;
#X connect 1 0 13 0;
#X connect 1 1 7 0;
#X connect 2 0 7 1;
#X connect 3 0 12 0;
#X connect 6 0 12 0;
#X connect 7 0 8 0;
#X connect 7 0 9 0;
#X connect 10 0 12 0;
#X connect 10 0 1 0;
#X connect 12 0 2 1;
#X connect 12 0 11 0;
#X connect 13 0 14 0;
#X connect 14 0 2 0;
