#N canvas 212 228 874 734 12;
#X obj 115 196 +;
#X obj 135 111 random 2;
#X obj 135 135 * 2;
#X obj 135 159 - 1;
#X floatatom 84 237 5 0 0 0 - - - 0;
#X obj 57 84 bng 19 250 50 0 empty empty empty 0 -10 0 12 #fcfcfc #000000 #000000;
#X obj 75 197 i 0;
#X obj 84 164 i 0;
#X obj 90 83 bng 19 250 50 0 empty empty empty 0 -10 0 12 #fcfcfc #000000 #000000;
#X obj 26 38 inlet;
#X obj 91 37 inlet;
#X text 26 13 step;
#X text 89 12 reset;
#X obj 84 277 outlet;
#X connect 0 0 6 1;
#X connect 1 0 2 0;
#X connect 2 0 3 0;
#X connect 3 0 0 1;
#X connect 4 0 13 0;
#X connect 5 0 1 0;
#X connect 5 0 6 0;
#X connect 6 0 0 0;
#X connect 6 0 4 0;
#X connect 7 0 6 0;
#X connect 8 0 7 0;
#X connect 9 0 5 0;
#X connect 10 0 8 0;
